<svg width="24" height="24" viewBox="0 0 24 24" fill="none" xmlns="http://www.w3.org/2000/svg">
<g filter="url(#filter0_d)">
<path fill-rule="evenodd" clip-rule="evenodd" d="M12 16C16.4183 16 20 12.4183 20 8C20 3.58172 16.4183 0 12 0C7.58172 0 4 3.58172 4 8C4 12.4183 7.58172 16 12 16Z" fill="#FF9900"/>
<path d="M11.2615 6.4551H12.7385V13H11.2615V6.4551ZM12 4.90259C11.7128 4.90259 11.4718 4.81126 11.2769 4.62861C11.0923 4.44597 11 4.22273 11 3.9589C11 3.69508 11.0923 3.47184 11.2769 3.28919C11.4718 3.0964 11.7128 3 12 3C12.2872 3 12.5231 3.09132 12.7077 3.27397C12.9026 3.44647 13 3.66464 13 3.92846C13 4.20243 12.9026 4.43582 12.7077 4.62861C12.5231 4.81126 12.2872 4.90259 12 4.90259Z" fill="white"/>
</g>
<defs>
<filter id="filter0_d" x="0" y="0" width="24" height="24" filterUnits="userSpaceOnUse" color-interpolation-filters="sRGB">
<feFlood flood-opacity="0" result="BackgroundImageFix"/>
<feColorMatrix in="SourceAlpha" type="matrix" values="0 0 0 0 0 0 0 0 0 0 0 0 0 0 0 0 0 0 127 0"/>
<feOffset dy="4"/>
<feGaussianBlur stdDeviation="2"/>
<feColorMatrix type="matrix" values="0 0 0 0 0 0 0 0 0 0 0 0 0 0 0 0 0 0 0.25 0"/>
<feBlend mode="normal" in2="BackgroundImageFix" result="effect1_dropShadow"/>
<feBlend mode="normal" in="SourceGraphic" in2="effect1_dropShadow" result="shape"/>
</filter>
</defs>
</svg>
